<svg height="511pt" viewBox="0 -86 511.99962 511" width="511pt" xmlns="http://www.w3.org/2000/svg"><path d="m454.34375 280.300781h-47.824219v-209.171875h47.824219l50.085938 204.015625c.644531 2.625-1.34375 5.15625-4.042969 5.15625zm0 0" fill="#ffae92"/><g fill="#5c5c5c"><path d="m71.960938 113.746094c-28.582032 0-51.835938-25.402344-51.835938-56.625 0-31.21875 23.253906-56.621094 51.835938-56.621094 28.582031 0 51.835937 25.402344 51.835937 56.621094 0 31.222656-23.253906 56.625-51.835937 56.625zm0-98.351563c-20.371094 0-36.941407 18.71875-36.941407 41.726563 0 23.011718 16.570313 41.730468 36.941407 41.730468 20.371093 0 36.941406-18.71875 36.941406-41.730468 0-23.007813-16.570313-41.726563-36.941406-41.726563zm0 0"/><path d="m135.8125 113.746094c-28.582031 0-51.835938-25.402344-51.835938-56.625 0-31.21875 23.253907-56.621094 51.835938-56.621094s51.835938 25.402344 51.835938 56.621094c0 31.222656-23.253907 56.625-51.835938 56.625zm0-98.351563c-20.371094 0-36.945312 18.71875-36.945312 41.726563 0 23.011718 16.574218 41.730468 36.945312 41.730468s36.941406-18.71875 36.941406-41.730468c0-23.007813-16.570312-41.726563-36.941406-41.726563zm0 0"/><path d="m199.664062 113.746094c-28.585937 0-51.835937-25.402344-51.835937-56.625 0-31.21875 23.253906-56.621094 51.835937-56.621094 28.582032 0 51.835938 25.402344 51.835938 56.621094 0 31.222656-23.253906 56.625-51.835938 56.625zm0-98.351563c-20.371093 0-36.945312 18.71875-36.945312 41.726563 0 23.011718 16.574219 41.730468 36.945312 41.730468 20.367188 0 36.941407-18.71875 36.941407-41.730468 0-23.007813-16.570313-41.726563-36.941407-41.726563zm0 0"/><path d="m263.515625 113.746094c-28.585937 0-51.835937-25.402344-51.835937-56.625 0-31.21875 23.253906-56.621094 51.835937-56.621094s51.835937 25.402344 51.835937 56.621094c0 31.222656-23.253906 56.625-51.835937 56.625zm0-98.351563c-20.371094 0-36.945313 18.71875-36.945313 41.726563 0 23.011718 16.574219 41.730468 36.945313 41.730468 20.367187 0 36.941406-18.71875 36.941406-41.730468 0-23.007813-16.570312-41.726563-36.941406-41.726563zm0 0"/><path d="m327.367188 113.746094c-28.585938 0-51.835938-25.402344-51.835938-56.625 0-31.21875 23.253906-56.621094 51.835938-56.621094 28.582031 0 51.835937 25.402344 51.835937 56.621094 0 31.222656-23.253906 56.625-51.835937 56.625zm0-98.351563c-20.371094 0-36.945313 18.71875-36.945313 41.726563 0 23.011718 16.574219 41.730468 36.945313 41.730468 20.371093 0 36.941406-18.71875 36.941406-41.730468 0-23.007813-16.574219-41.726563-36.941406-41.726563zm0 0"/><path d="m391.214844 113.746094c-28.582032 0-51.835938-25.402344-51.835938-56.625 0-31.21875 23.253906-56.621094 51.835938-56.621094 28.585937 0 51.835937 25.402344 51.835937 56.621094 0 31.222656-23.25 56.625-51.835937 56.625zm0-98.351563c-20.371094 0-36.941406 18.71875-36.941406 41.726563 0 23.011718 16.574218 41.730468 36.941406 41.730468 20.371094 0 36.945312-18.71875 36.945312-41.730468 0-23.007813-16.574218-41.726563-36.945312-41.726563zm0 0"/></g><path d="m450.34375 332.605469h-438.898438c-2.207031 0-4-1.792969-4-4v-257.121094c0-2.207031 1.792969-4 4-4h438.898438c2.207031 0 4 1.792969 4 4v257.121094c0 2.207031-1.792969 4-4 4zm0 0" fill="#ffc5b2"/><path d="m34.152344 90.328125c-2.617188 0-5.152344-1.382813-6.515625-3.828125-4.914063-8.839844-7.511719-19-7.511719-29.378906 0-31.21875 23.253906-56.621094 51.835938-56.621094 4.113281 0 7.445312 3.335938 7.445312 7.449219s-3.332031 7.445312-7.445312 7.445312c-20.371094 0-36.945313 18.71875-36.945313 41.730469 0 7.851562 1.949219 15.503906 5.636719 22.136719 2 3.59375.707031 8.128906-2.886719 10.128906-1.148437.632813-2.386719.9375-3.613281.9375zm0 0" fill="#5c5c5c"/><path d="m98.003906 90.328125c-2.617187 0-5.152344-1.382813-6.515625-3.828125-4.914062-8.839844-7.511719-19-7.511719-29.378906 0-31.21875 23.253907-56.621094 51.835938-56.621094 4.113281 0 7.445312 3.335938 7.445312 7.449219s-3.332031 7.445312-7.445312 7.445312c-20.371094 0-36.945312 18.71875-36.945312 41.730469 0 7.851562 1.949218 15.503906 5.636718 22.136719 2 3.59375.707032 8.128906-2.886718 10.128906-1.144532.632813-2.386719.9375-3.613282.9375zm0 0" fill="#5c5c5c"/><path d="m161.855469 90.328125c-2.617188 0-5.152344-1.382813-6.515625-3.828125-4.914063-8.839844-7.515625-19-7.515625-29.378906 0-31.21875 23.253906-56.621094 51.835937-56.621094 4.113282 0 7.449219 3.335938 7.449219 7.449219s-3.335937 7.445312-7.449219 7.445312c-20.371094 0-36.941406 18.71875-36.941406 41.730469 0 7.851562 1.949219 15.503906 5.636719 22.136719 2 3.59375.703125 8.128906-2.890625 10.128906-1.144532.632813-2.386719.9375-3.609375.9375zm0 0" fill="#5c5c5c"/><path d="m225.707031 90.328125c-2.617187 0-5.152343-1.382813-6.515625-3.828125-4.914062-8.839844-7.515625-19-7.515625-29.378906 0-31.21875 23.253907-56.621094 51.835938-56.621094 4.113281 0 7.449219 3.335938 7.449219 7.449219s-3.335938 7.445312-7.449219 7.445312c-20.371094 0-36.941407 18.71875-36.941407 41.730469 0 7.851562 1.949219 15.503906 5.636719 22.136719 2 3.59375.703125 8.128906-2.886719 10.128906-1.148437.632813-2.390624.9375-3.613281.9375zm0 0" fill="#5c5c5c"/><path d="m289.558594 90.328125c-2.617188 0-5.15625-1.382813-6.515625-3.828125-4.914063-8.839844-7.515625-19-7.515625-29.378906 0-31.21875 23.253906-56.621094 51.835937-56.621094 4.113281 0 7.449219 3.335938 7.449219 7.449219s-3.335938 7.445312-7.449219 7.445312c-20.371093 0-36.941406 18.71875-36.941406 41.730469 0 7.851562 1.949219 15.503906 5.636719 22.136719 1.996094 3.59375.703125 8.128906-2.890625 10.128906-1.144531.632813-2.386719.9375-3.609375.9375zm0 0" fill="#5c5c5c"/><path d="m353.410156 90.328125c-2.617187 0-5.152344-1.382813-6.515625-3.828125-4.914062-8.839844-7.515625-19-7.515625-29.378906 0-31.21875 23.253906-56.621094 51.835938-56.621094 4.113281 0 7.449218 3.335938 7.449218 7.449219s-3.335937 7.445312-7.449218 7.445312c-20.371094 0-36.941406 18.71875-36.941406 41.730469 0 7.851562 1.949218 15.503906 5.636718 22.136719 2 3.59375.703125 8.128906-2.886718 10.128906-1.148438.632813-2.390626.9375-3.613282.9375zm0 0" fill="#5c5c5c"/><path d="m136.144531 221.945312h-94.433593c-4.113282 0-7.445313-3.335937-7.445313-7.449218v-90.09375c0-4.113282 3.332031-7.445313 7.445313-7.445313h94.433593c4.113281 0 7.449219 3.332031 7.449219 7.445313v90.09375c0 4.113281-3.335938 7.449218-7.449219 7.449218zm-86.984375-14.894531h79.539063v-75.199219h-79.539063zm0 0" fill="#ffe3dc"/><path d="m230.578125 221.945312h-94.433594c-4.113281 0-7.445312-3.335937-7.445312-7.449218v-90.09375c0-4.113282 3.332031-7.445313 7.445312-7.445313h94.433594c4.113281 0 7.445313 3.332031 7.445313 7.445313v90.09375c0 4.113281-3.332032 7.449218-7.445313 7.449218zm-86.984375-14.894531h79.539062v-75.199219h-79.539062zm0 0" fill="#ffe3dc"/><path d="m230.578125 124.402344h94.433594v90.09375h-94.433594zm0 0" fill="#ffae92"/><path d="m419.445312 221.945312h-94.433593c-4.113281 0-7.449219-3.335937-7.449219-7.449218v-90.09375c0-4.113282 3.335938-7.445313 7.449219-7.445313h94.433593c4.113282 0 7.445313 3.332031 7.445313 7.445313v90.09375c0 4.113281-3.332031 7.449218-7.445313 7.449218zm-86.988281-14.894531h79.539063v-75.199219h-79.539063zm0 0" fill="#ffe3dc"/><path d="m136.144531 312.039062h-94.433593c-4.113282 0-7.445313-3.335937-7.445313-7.445312v-90.097656c0-4.109375 3.332031-7.445313 7.445313-7.445313h94.433593c4.113281 0 7.449219 3.335938 7.449219 7.445313v90.097656c0 4.113281-3.335938 7.445312-7.449219 7.445312zm-86.984375-14.894531h79.539063v-75.199219h-79.539063zm0 0" fill="#ffe3dc"/><path d="m230.578125 312.039062h-94.433594c-4.113281 0-7.445312-3.335937-7.445312-7.445312v-90.097656c0-4.109375 3.332031-7.445313 7.445312-7.445313h94.433594c4.113281 0 7.445313 3.335938 7.445313 7.445313v90.097656c0 4.113281-3.332032 7.445312-7.445313 7.445312zm-86.984375-14.894531h79.539062v-75.199219h-79.539062zm0 0" fill="#ffe3dc"/><path d="m325.011719 312.039062h-94.433594c-4.113281 0-7.445313-3.335937-7.445313-7.445312v-90.097656c0-4.109375 3.332032-7.445313 7.445313-7.445313h94.433594c4.113281 0 7.445312 3.335938 7.445312 7.445313v90.097656c0 4.113281-3.332031 7.445312-7.445312 7.445312zm-86.988281-14.894531h79.542968v-75.199219h-79.542968zm0 0" fill="#ffe3dc"/><path d="m419.445312 312.039062h-94.433593c-4.113281 0-7.449219-3.335937-7.449219-7.445312v-90.097656c0-4.109375 3.335938-7.445313 7.449219-7.445313h94.433593c4.113282 0 7.445313 3.335938 7.445313 7.445313v90.097656c0 4.113281-3.332031 7.445312-7.445313 7.445312zm-86.988281-14.894531h79.539063v-75.199219h-79.539063zm0 0" fill="#ffe3dc"/><path d="m325.011719 221.945312h-94.433594c-4.113281 0-7.445313-3.335937-7.445313-7.449218v-90.09375c0-4.113282 3.332032-7.445313 7.445313-7.445313h94.433594c4.113281 0 7.445312 3.332031 7.445312 7.445313v90.09375c0 4.113281-3.332031 7.449218-7.445312 7.449218zm-86.988281-14.894531h79.542968v-75.199219h-79.542968zm0 0" fill="#ffe3dc"/><path d="m379.453125 192.304688c.027344-19.53125-15.777344-35.386719-35.304687-35.414063-11.46875-.019531-21.667969 5.421875-28.140626 13.875-.410156.535156-1.21875.539063-1.628906.003906-6.523437-8.4375-16.777344-13.847656-28.292968-13.753906-20.113282.164063-35.796876 17.320313-35.023438 37.421875.394531 10.261719 3.980469 16.128906 14.167969 26.273438 8.910156 8.871093 36.921875 35.652343 46.734375 45.023437 1.925781 1.835937 4.949218 1.832031 6.863281-.015625 10.117187-9.753906 39.617187-38.21875 46.777344-45.410156 8.683593-8.722656 13.828125-16.589844 13.847656-28.003906zm0 0" fill="#ed500a"/><path d="m344.148438 156.890625c-2.078126-.003906-4.109376.175781-6.085938.515625 9.074219 6.414062 14.996094 16.984375 14.976562 28.941406-.015624 11.414063-5.160156 19.28125-13.84375 28.003906-5.949218 5.972657-27.292968 26.609376-40.15625 39.023438 5.289063 5.0625 9.949219 9.515625 12.929688 12.359375 1.921875 1.835937 4.945312 1.832031 6.859375-.015625 10.117187-9.753906 39.617187-38.21875 46.78125-45.410156 8.679687-8.722656 13.828125-16.59375 13.84375-28.007813.027344-19.527343-15.777344-35.382812-35.304687-35.410156zm0 0" fill="#db3317"/><path d="m511.660156 273.371094-50.054687-203.886719c-.9375-5.355469-5.613281-9.445313-11.234375-9.445313h-8.382813c.046875-.972656.070313-1.945312.070313-2.917968 0-31.222656-23.253906-56.621094-51.835938-56.621094-11.808594 0-22.703125 4.34375-31.425781 11.636719-8.726563-7.292969-19.621094-11.636719-31.429687-11.636719-12.039063 0-23.121094 4.515625-31.925782 12.0625-8.808594-7.546875-19.890625-12.0625-31.925781-12.0625-12.039063 0-23.121094 4.515625-31.925781 12.0625-8.808594-7.546875-19.890625-12.0625-31.925782-12.0625-12.035156 0-23.117187 4.515625-31.925781 12.0625-8.808593-7.546875-19.890625-12.0625-31.925781-12.0625s-23.117188 4.515625-31.925781 12.0625c-8.808594-7.546875-19.890625-12.0625-31.925781-12.0625-28.582032 0-51.835938 25.402344-51.835938 56.621094 0 .976562.03125 1.949218.078125 2.917968h-8.78125c-6.300781 0-11.421875 5.121094-11.421875 11.417969v61.488281c0 4.113282 3.335938 7.449219 7.445312 7.449219 4.113282 0 7.449219-3.335937 7.449219-7.449219v-58.011718h7.863281c1.21875 4.027344 2.847657 7.910156 4.878907 11.566406 1.363281 2.445312 3.898437 3.828125 6.515625 3.828125 1.226562 0 2.464844-.304687 3.613281-.941406 3.59375-1.996094 4.886719-6.53125 2.886719-10.128907-.773438-1.394531-1.457032-2.847656-2.078125-4.324218h48.03125c1.222656 4.027344 2.851562 7.910156 4.882812 11.566406 1.363281 2.445312 3.902344 3.828125 6.515625 3.828125 1.226563 0 2.46875-.304687 3.613282-.941406 3.59375-2 4.886718-6.53125 2.890624-10.128907-.777343-1.394531-1.460937-2.847656-2.082031-4.324218h48.035157c1.21875 4.027344 2.847656 7.910156 4.878906 11.566406 1.363281 2.445312 3.898437 3.828125 6.515625 3.828125 1.226562 0 2.464843-.304687 3.613281-.941406 3.59375-1.996094 4.886719-6.53125 2.886719-10.128907-.777344-1.394531-1.457031-2.847656-2.078125-4.324218h48.03125c1.222656 4.027344 2.851562 7.910156 4.882812 11.566406 1.363282 2.445312 3.902344 3.828125 6.515625 3.828125 1.226563 0 2.46875-.304687 3.613281-.941406 3.59375-2 4.886719-6.53125 2.890626-10.128907-.777344-1.394531-1.460938-2.847656-2.082032-4.324218h48.03125c1.222656 4.027344 2.851563 7.910156 4.882813 11.566406 1.363281 2.445312 3.898437 3.828125 6.515625 3.828125 1.226562 0 2.464844-.304687 3.613281-.941406 3.59375-1.996094 4.886719-6.53125 2.886719-10.128907-.777344-1.394531-1.457032-2.847656-2.078125-4.324218h47.039062c1.21875 4.027344 2.851563 7.910156 4.882813 11.566406 1.363281 2.445312 3.898437 3.828125 6.515625 3.828125 1.226562 0 2.46875-.304687 3.613281-.941406 3.59375-2 4.886719-6.53125 2.886719-10.128907-.777344-1.394531-1.457031-2.847656-2.078125-4.324218h90.058594v250.226562h-39.179688c-4.113281 0-7.449219 3.332032-7.449219 7.445313s3.335938 7.449219 7.449219 7.449219h42.652344c6.296875 0 11.417968-5.125 11.417968-11.417969v-40.886719h38.597657c3.589843 0 6.917969-1.621094 9.136719-4.445312 2.210937-2.828126 2.992187-6.449219 2.136718-9.933594zm-84.492187-216.25c0 .976562-.042969 1.949218-.101563 2.917968h-47.933594c.046876-.972656.070313-1.945312.070313-2.917968 0-12.734375-3.871094-24.5-10.394531-33.96875 6.046875-4.878906 13.4375-7.761719 21.414062-7.761719 20.371094.003906 36.945313 18.722656 36.945313 41.730469zm-73.785157 2.917968c-.007812-.082031-.015624-.164062-.019531-.246093-.050781-.886719-.082031-1.777344-.082031-2.671875 0-8.027344 2.019531-15.527344 5.511719-21.898438 3.492187 6.371094 5.515625 13.871094 5.515625 21.898438 0 .976562-.042969 1.945312-.101563 2.917968zm-4.601562-36.886718c-6.523438 9.46875-10.394531 21.234375-10.394531 33.96875 0 .878906.023437 1.753906.0625 2.628906.003906.097656 0 .191406.007812.289062h-23.175781c.042969-.972656.070312-1.945312.070312-2.917968 0-12.503906-3.738281-24.070313-10.046874-33.449219 6.160156-5.199219 13.796874-8.28125 22.058593-8.28125 7.980469.003906 15.371094 2.882813 21.417969 7.761719zm-58.257812 36.886718c-.003907-.085937-.011719-.171874-.019532-.257812-.050781-.882812-.082031-1.769531-.082031-2.660156 0-7.636719 1.835937-14.792969 5.019531-20.957032 3.183594 6.164063 5.015625 13.320313 5.015625 20.957032 0 .976562-.039062 1.949218-.097656 2.917968zm-4.949219-36.367187c-6.308594 9.378906-10.046875 20.945313-10.046875 33.449219 0 .859375.027344 1.714844.0625 2.566406.003906.117188.003906.234375.007812.351562h-24.167968c.046874-.96875.070312-1.941406.070312-2.917968 0-12.503906-3.738281-24.070313-10.046875-33.449219 6.160156-5.195313 13.800781-8.277344 22.0625-8.277344s15.898437 3.078125 22.058594 8.277344zm-58.902344 36.367187c-.007813-.085937-.015625-.171874-.019531-.261718-.050782-.882813-.082032-1.765625-.082032-2.65625 0-7.636719 1.835938-14.792969 5.019532-20.957032 3.183594 6.164063 5.015625 13.320313 5.015625 20.957032 0 .976562-.039063 1.945312-.097657 2.917968zm-4.945313-36.367187c-6.3125 9.378906-10.046874 20.945313-10.046874 33.449219 0 .859375.023437 1.710937.058593 2.566406.003907.117188.003907.234375.007813.351562h-24.167969c.046875-.972656.070313-1.945312.070313-2.917968 0-12.503906-3.738282-24.070313-10.046876-33.449219 6.160157-5.199219 13.800782-8.28125 22.0625-8.28125 8.261719.003906 15.898438 3.082031 22.0625 8.28125zm-58.90625 36.367187c-.003906-.085937-.011718-.171874-.019531-.257812-.046875-.882812-.082031-1.769531-.082031-2.660156 0-7.632813 1.835938-14.792969 5.019531-20.957032 3.183594 6.164063 5.019531 13.320313 5.019531 20.957032 0 .976562-.042968 1.949218-.101562 2.917968zm-4.945312-36.367187c-6.308594 9.378906-10.046875 20.945313-10.046875 33.449219 0 .859375.023437 1.714844.058594 2.566406.003906.117188.003906.234375.007812.351562h-24.167969c.046876-.96875.070313-1.941406.070313-2.917968 0-12.503906-3.738281-24.070313-10.046875-33.449219 6.160156-5.195313 13.800781-8.277344 22.0625-8.277344s15.902344 3.078125 22.0625 8.277344zm-58.90625 36.367187c-.003906-.085937-.011719-.175781-.019531-.261718-.046875-.878906-.082031-1.765625-.082031-2.65625 0-7.636719 1.835937-14.792969 5.019531-20.957032 3.183593 6.164063 5.019531 13.324219 5.019531 20.957032 0 .976562-.042969 1.949218-.101562 2.917968zm-63.949219-2.917968c0-23.007813 16.570313-41.726563 36.941407-41.726563 8.261718 0 15.902343 3.078125 22.0625 8.277344-6.308594 9.378906-10.046876 20.945313-10.046876 33.449219 0 .859375.023438 1.710937.058594 2.566406.003906.117188.003906.234375.011719.351562h-48.9375c-.0625-.96875-.089844-1.941406-.089844-2.917968zm426.769531 215.734375v-140.160157l34.410157 140.160157zm0 0"/><path d="m374.71875 325.160156h-359.824219v-158.570312c0-4.113282-3.335937-7.445313-7.449219-7.445313-4.113281 0-7.445312 3.332031-7.445312 7.445313v162.042968c0 6.296876 5.121094 11.417969 11.417969 11.417969h363.300781c4.113281 0 7.445312-3.332031 7.445312-7.445312s-3.332031-7.445313-7.445312-7.445313zm0 0"/><path d="m419.445312 312.039062c4.113282 0 7.445313-3.335937 7.445313-7.445312v-180.191406c0-4.113282-3.332031-7.445313-7.445313-7.445313h-377.734374c-4.113282 0-7.445313 3.332031-7.445313 7.445313v180.191406c0 4.113281 3.332031 7.445312 7.445313 7.445312zm-370.285156-90.09375h79.539063v75.199219h-79.539063zm311.167969-6.890624c-5.789063 5.816406-26.675781 26.011718-39.324219 38.222656-.839844.535156-1.566406 1.234375-2.128906 2.050781-1.296875 1.25-2.472656 2.386719-3.496094 3.371094-10.273437-9.8125-36.445312-34.855469-44.894531-43.265625-9.929687-9.886719-11.703125-13.984375-11.980469-21.28125-.300781-7.804688 2.597656-15.5 7.957032-21.113282 5.21875-5.46875 12.210937-8.515624 19.6875-8.578124h.234374c8.714844 0 16.757813 3.949218 22.097657 10.859374 1.621093 2.09375 4.0625 3.296876 6.707031 3.296876h.015625c2.652344-.003907 5.101563-1.214844 6.714844-3.324219 5.335937-6.964844 13.414062-10.957031 22.171875-10.957031h.046875c7.453125.011718 14.460937 2.925781 19.722656 8.207031 5.265625 5.28125 8.15625 12.292969 8.144531 19.75-.011718 8.160156-3.066406 14.117187-11.675781 22.761719zm-100.351563 10.933593c8.828126 8.789063 35.703126 34.492188 46.84375 45.132813 2.40625 2.296875 5.488282 3.445312 8.570313 3.445312.726563 0 1.453125-.070312 2.171875-.199218v22.78125h-79.539062v-75.203126h18.039062c1.21875 1.3125 2.519531 2.652344 3.914062 4.042969zm55.195313-65.3125c-7.90625-7.21875-18.222656-11.207031-29.144531-11.105469-11.539063.09375-22.3125 4.777344-30.339844 13.1875-8.121094 8.507813-12.519531 20.160157-12.066406 31.964844.179687 4.679688.992187 8.664063 2.414062 12.328125h-8.007812v-75.199219h79.539062v26.792969c-.820312.644531-1.625 1.316407-2.394531 2.03125zm-92.039063 46.375h-79.539062v-75.199219h79.539062zm0 14.894531v75.199219h-79.539062v-75.199219zm109.324219 75.199219v-34.226562c13.4375-12.96875 32.730469-31.636719 38.425781-37.355469 1.167969-1.171875 2.320313-2.378906 3.441407-3.617188h37.671875v75.199219zm79.539063-90.09375h-27.902344c1.742188-4.320312 2.796875-9.164062 2.804688-14.738281.015624-11.433594-4.417969-22.191406-12.492188-30.285156-8.070312-8.097656-18.8125-12.566406-30.246094-12.585938-.023437 0-.050781 0-.070312 0-4 0-7.902344.546875-11.632813 1.589844v-19.183594h79.539063zm-283.296875-75.199219v75.199219h-79.539063v-75.199219zm0 0"/></svg>