<svg height="512pt" viewBox="-55 0 512 512.00175" width="512pt" xmlns="http://www.w3.org/2000/svg"><path d="m174.308594 8.921875c-3.226563-2.207031-7.523438-1.832031-10.285156.925781l-4.898438 4.902344c-3.265625 3.261719-3.238281 8.675781.234375 11.71875 9.46875 8.28125 25.246094 36.054688 25.246094 75.503906h32.199219c0-50.472656-29.664063-84.273437-42.496094-93.050781zm0 0" fill="#b57f5f"/><path d="m30.757812 206.625c0 85.023438 21.070313 217.28125 136.367188 288.300781 20.6875 12.742188 46.472656 12.742188 67.160156 0 115.300782-71.019531 136.371094-203.273437 136.371094-288.300781zm0 0" fill="#c38c66"/><path d="m200.707031 93.921875c-106.703125 0-193.207031 39.246094-193.207031 87.65625 0 13.832031 10.414062 25.046875 23.257812 25.046875h339.898438c12.84375 0 23.253906-11.214844 23.253906-25.046875 0-48.410156-86.5-87.65625-193.203125-87.65625zm0 0" fill="#ecbd83"/><path d="m153.695312 230.773438h216.382813c.398437-8.378907.578125-16.460938.578125-24.148438h-339.898438c0 85.023438 21.066407 217.28125 136.367188 288.300781 5.777344 3.558594 11.96875 6.015625 18.320312 7.585938-49.980468-69.5-67.414062-157.105469-71.953124-228.957031-1.46875-23.195313 16.960937-42.78125 40.203124-42.78125zm0 0" fill="#b57f5f"/><path d="m119.308594 182.472656c-12.84375 0-23.253906-11.210937-23.253906-25.042968 0-23.386719 20.21875-44.613282 53.109374-60.328126-81.671874 10.234376-141.664062 44.167969-141.664062 84.476563 0 13.832031 10.414062 25.046875 23.257812 25.046875h339.898438c12.558594 0 22.722656-10.742188 23.171875-24.152344zm0 0" fill="#e2a975"/><path d="m401.410156 181.578125c0-26.53125-21.65625-50.96875-60.988281-68.8125-31.839844-14.445313-72.484375-23.367187-116.3125-25.71875-2.566406-49.535156-32.40625-75.3125-45.566406-84.316406-6.195313-4.238281-14.53125-3.476563-19.820313 1.816406l-4.902344 4.898437c-3.0625 3.066407-4.742187 7.308594-4.597656 11.644532.140625 4.238281 2.035156 8.253906 5.199219 11.023437 7.921875 6.933594 20.867187 23.03125 22.507813 54.953125-43.683594 2.378906-84.1875 11.292969-115.9375 25.699219-39.332032 17.84375-60.992188 42.28125-60.992188 68.8125 0 15.226563 9.933594 28.039063 23.300781 31.574219.496094 38.195312 5.527344 92.46875 25.378907 145.503906 23.285156 62.199219 61.8125 110.195312 114.511718 142.65625 11.570313 7.125 24.542969 10.6875 37.515625 10.6875 12.972657 0 25.945313-3.5625 37.511719-10.6875 52.703125-32.460938 91.230469-80.457031 114.515625-142.65625 19.851563-53.035156 24.882813-107.308594 25.375-145.503906 13.367187-3.535156 23.300781-16.347656 23.300781-31.574219zm-200.703125-80.15625c43.003907 0 83.730469 6.425781 116.8125 18.269531-.09375.0625-.1875.125-.28125.1875-5.699219 3.796875-10.199219 6.792969-20.015625 6.792969-9.808594 0-14.304687-2.996094-19.996094-6.792969-6.546874-4.363281-13.964843-9.308594-28.316406-9.308594-14.335937 0-21.753906 4.949219-28.296875 9.3125-5.683593 3.792969-10.175781 6.789063-19.972656 6.789063-9.800781 0-14.296875-2.996094-19.984375-6.792969-6.546875-4.363281-13.964844-9.308594-28.308594-9.308594s-21.761718 4.945313-28.304687 9.3125c-5.6875 3.792969-10.179688 6.789063-19.976563 6.789063-9.800781 0-14.292968-2.996094-19.980468-6.789063-.082032-.054687-.171876-.113281-.253907-.167968 33.089844-11.859375 73.84375-18.292969 116.875-18.292969zm-36.40625-80.597656c-.023437-.019531-.082031-.070313-.085937-.234375-.003906-.09375.011718-.335938.214844-.535156l4.898437-4.902344c.199219-.195313.488281-.210938.746094-.039063 11.15625 7.628907 36.289062 29.375 38.984375 71.394531-2.777344-.050781-5.558594-.085937-8.351563-.085937-2.941406 0-5.867187.035156-8.789062.09375-1.878907-37.566406-17.855469-57.152344-27.617188-65.691406zm-98.410156 106.203125c3.71875 1.234375 6.605469 3.15625 9.871094 5.335937 6.542969 4.363281 13.960937 9.308594 28.304687 9.308594 14.339844 0 21.757813-4.945313 28.300782-9.308594 5.6875-3.792969 10.179687-6.792969 19.980468-6.792969 9.804688 0 14.296875 3 19.988282 6.792969 6.542968 4.363281 13.960937 9.308594 28.308593 9.308594 14.339844 0 21.753907-4.945313 28.296875-9.308594 5.683594-3.792969 10.175782-6.792969 19.972656-6.792969 9.804688 0 14.300782 3 19.996094 6.792969 6.546875 4.363281 13.964844 9.308594 28.3125 9.308594 14.355469 0 21.78125-4.945313 28.332032-9.308594 3.285156-2.1875 6.1875-4.113281 9.9375-5.347656 23.160156 10.714844 39.246093 23.914063 46.519531 37.789063-2.898438-1.203126-5.359375-2.835938-8.113281-4.671876-6.550782-4.363281-13.976563-9.308593-28.332032-9.308593-14.351562 0-21.777344 4.945312-28.328125 9.308593-5.695312 3.792969-10.199219 6.789063-20.015625 6.789063-9.808594 0-14.304687-2.996094-19.996094-6.789063-6.546874-4.363281-13.964843-9.3125-28.3125-9.3125-14.339843 0-21.753906 4.949219-28.296874 9.3125-5.6875 3.792969-10.179688 6.789063-19.972657 6.789063-9.804687 0-14.296875-2.996094-19.988281-6.789063-6.542969-4.363281-13.960938-9.3125-28.308594-9.3125-14.34375 0-21.757812 4.949219-28.300781 9.3125-5.6875 3.792969-10.183594 6.789063-19.980469 6.789063-9.800781 0-14.292968-2.996094-19.980468-6.789063-6.542969-4.363281-13.960938-9.3125-28.300782-9.3125-14.34375 0-21.761718 4.949219-28.304687 9.3125-2.738281 1.828126-5.1875 3.460938-8.074219 4.667969 7.269531-13.871093 23.34375-27.058593 46.484375-37.773437zm304.765625 72.097656h-65.296875c-4.144531 0-7.5 3.355469-7.5 7.5 0 4.140625 3.355469 7.5 7.5 7.5h8.558594c-.347657 33.660156-3.039063 65.894531-8.023438 95.925781-.679687 4.085938 2.085938 7.949219 6.171875 8.628907.414063.066406.828125.101562 1.234375.101562 3.605469 0 6.78125-2.605469 7.390625-6.273438 5.117188-30.835937 7.878906-63.898437 8.230469-98.382812h34.175781c-.5625 36.886719-5.507812 88.769531-24.414062 139.273438-22.085938 59.003906-58.535156 104.46875-108.328125 135.140624-9.117188 5.617188-19.335938 8.429688-29.558594 8.449219-.03125 0-.058594-.003906-.089844-.003906-4.90625 0-9.109375-3.753906-11.769531-6.902344-12.117188-14.320312-22.851562-32.164062-31.898438-53.035156-1.648437-3.800781-6.0625-5.542969-9.867187-3.898437-3.796875 1.648437-5.542969 6.066406-3.894531 9.867187 6.925781 15.972656 14.824218 30.320313 23.570312 42.871094-47.640625-30.617188-82.660156-75.164063-104.117187-132.488281-18.910157-50.503907-23.851563-102.386719-24.414063-139.273438h34.175782c.175781 16.765625.925781 33.371094 2.242187 49.460938.320313 3.917968 3.601563 6.886718 7.46875 6.886718.203125 0 .410156-.007812.617187-.023437 4.128907-.339844 7.203126-3.957031 6.863282-8.085938-1.285156-15.6875-2.015625-31.878906-2.1875-48.238281h185.664062c4.144532 0 7.5-3.355469 7.5-7.5 0-4.140625-3.355468-7.5-7.5-7.5h-242.402344c-8.6875 0-15.757812-7.871094-15.757812-17.542969 0-.058593.003906-.117187.003906-.175781 9.640625-1.371094 15.527344-5.273438 20.800782-8.792969 5.6875-3.792969 10.179687-6.789062 19.976562-6.789062 9.800781 0 14.292969 2.996093 19.980469 6.789062 6.542969 4.367188 13.960937 9.3125 28.300781 9.3125 14.34375 0 21.761719-4.945312 28.304688-9.3125 5.6875-3.792969 10.179687-6.789062 19.980468-6.789062 9.800782 0 14.296875 2.996093 19.984375 6.792969 6.546875 4.363281 13.964844 9.308593 28.308594 9.308593 14.339844 0 21.757813-4.945312 28.296875-9.3125 5.6875-3.792969 10.179688-6.789062 19.972656-6.789062 9.808594 0 14.304688 2.996093 19.996094 6.792969 6.546875 4.363281 13.96875 9.308593 28.316406 9.308593 14.355469 0 21.78125-4.945312 28.332032-9.308593 5.695312-3.792969 10.195312-6.792969 20.011718-6.792969s14.316406 3 20.015625 6.792969c5.273438 3.511718 11.164063 7.429687 20.824219 8.800781 0 .054687.007812.109375.007812.164062-.003906 9.671875-7.070312 17.542969-15.757812 17.542969zm0 0"/><path d="m288.976562 231.335938c-4.140624-.140626-7.605468 3.105468-7.746093 7.246093-.265625 8.035157-.640625 16.09375-1.113281 23.941407-.246094 4.136718 2.902343 7.6875 7.039062 7.9375.152344.007812.304688.011718.457031.011718 3.933594 0 7.238281-3.066406 7.476563-7.050781.480468-7.980469.859375-16.171875 1.132812-24.339844.136719-4.140625-3.105468-7.609375-7.246094-7.746093zm0 0"/></svg>