<?xml version="1.0" encoding="iso-8859-1"?>
<!-- Generator: Adobe Illustrator 19.0.0, SVG Export Plug-In . SVG Version: 6.00 Build 0)  -->
<svg version="1.1" id="Layer_1" xmlns="http://www.w3.org/2000/svg" xmlns:xlink="http://www.w3.org/1999/xlink" x="0px" y="0px"
	 viewBox="0 0 512 512" style="enable-background:new 0 0 512 512;" xml:space="preserve">
<path style="fill:#FFC033;" d="M401.044,241.199v125.77c0,79.972-65.06,145.031-145.017,145.031c-0.483,0-0.98,0-1.464-0.014
	c-79.295-0.787-143.568-65.529-143.568-145.017v-125.77c0-11.432,9.265-20.711,20.711-20.711h248.627
	C391.779,220.488,401.044,229.766,401.044,241.199z"/>
<path style="fill:#F9A926;" d="M401.044,241.199v125.77c0,79.972-65.06,145.031-145.017,145.031c-0.483,0-0.98,0-1.464-0.014
	V220.488h125.77C391.779,220.488,401.044,229.766,401.044,241.199z"/>
<path style="fill:#A6673A;" d="M276.737,20.711v63.803c0,11.446-9.278,20.711-20.711,20.711c-0.497,0-0.98-0.014-1.464-0.055
	c-10.77-0.746-19.247-9.706-19.247-20.656V20.711c0-10.935,8.478-19.91,19.247-20.656C255.046,0.014,255.529,0,256.027,0
	C267.459,0,276.737,9.278,276.737,20.711z"/>
<g>
	<path style="fill:#99522E;" d="M276.737,20.711v63.803c0,11.446-9.278,20.711-20.711,20.711c-0.497,0-0.98-0.014-1.464-0.055V0.055
		C255.046,0.014,255.529,0,256.027,0C267.459,0,276.737,9.278,276.737,20.711z"/>
	<path style="fill:#99522E;" d="M437.978,245.52c-6.931,8.657-17.259,13.628-28.346,13.628l-155.069,0.097l-152.156,0.097
		c-0.014,0-0.014,0-0.028,0c-11.073,0-21.401-4.957-28.332-13.6c-6.917-8.616-9.499-19.731-7.111-30.486
		c9.43-42.319,33.248-80.759,67.103-108.221c33.966-27.573,76.713-42.885,120.523-43.217c0.483-0.014,0.98-0.014,1.464-0.014
		c44.266,0,87.552,15.326,121.89,43.161c33.828,27.421,57.659,65.791,67.131,108.055
		C447.464,225.776,444.882,236.891,437.978,245.52z"/>
</g>
<path style="fill:#8C4729;" d="M437.978,245.52c-6.931,8.657-17.259,13.628-28.346,13.628l-155.069,0.097V63.817
	c0.483-0.014,0.98-0.014,1.464-0.014c44.266,0,87.552,15.326,121.89,43.161c33.828,27.421,57.659,65.791,67.131,108.055
	C447.464,225.776,444.882,236.891,437.978,245.52z"/>
<g>
</g>
<g>
</g>
<g>
</g>
<g>
</g>
<g>
</g>
<g>
</g>
<g>
</g>
<g>
</g>
<g>
</g>
<g>
</g>
<g>
</g>
<g>
</g>
<g>
</g>
<g>
</g>
<g>
</g>
</svg>
